<?xml version="1.0" standalone="no"?>
<!DOCTYPE svg PUBLIC "-//W3C//DTD SVG 1.1//EN" "http://www.w3.org/Graphics/SVG/1.1/DTD/svg11.dtd" >
<svg xmlns="http://www.w3.org/2000/svg" xmlns:xlink="http://www.w3.org/1999/xlink" version="1.1">
<metadata>
Created by FontForge 20201107 at Thu Feb  6 17:36:04 2025
 By 
Copyright 2023 Butirmantra
</metadata>
<defs>
<font id="SoraineRegular" horiz-adv-x="1882" >
  <font-face 
    font-family="Soraine"
    font-weight="500"
    font-stretch="normal"
    units-per-em="2048"
    panose-1="0 0 0 0 0 0 0 0 0 0"
    ascent="1638"
    descent="-410"
    x-height="1229"
    cap-height="1229"
    bbox="0 -262 2492 1520"
    underline-thickness="0"
    underline-position="0"
    unicode-range="U+000D-00A0"
  />
<missing-glyph horiz-adv-x="1331" 
 />
    <glyph glyph-name=".notdef" horiz-adv-x="1331" 
 />
    <glyph glyph-name=".notdef" horiz-adv-x="1331" 
 />
    <glyph glyph-name=".null" horiz-adv-x="0" 
 />
    <glyph glyph-name="nonmarkingreturn" horiz-adv-x="682" 
 />
    <glyph glyph-name="controlCR" unicode="&#xd;" horiz-adv-x="1257" 
 />
    <glyph glyph-name="space" unicode=" " horiz-adv-x="1257" 
 />
    <glyph glyph-name="exclam" unicode="!" horiz-adv-x="526" 
d="M0 312v-312h18h275h19v312h-312zM0 1229h312v-854h-312v854z" />
    <glyph glyph-name="quotedbl" unicode="&#x22;" horiz-adv-x="905" 
d="M690 734h-276v390v161h276v-161v-390zM276 734h-276v390v161h276v-161v-390z" />
    <glyph glyph-name="numbersign" unicode="#" horiz-adv-x="2263" 
d="M865 546h203l115 137h-203zM1031 1229h407l-227 -271h203l227 271h407l-227 -271h147v-275h-378l-115 -137h218v-275h-449l-227 -271h-407l227 271h-203l-227 -271h-407l227 271h-147v275h378l115 137h-218v275h449z" />
    <glyph glyph-name="dollar" unicode="$" 
d="M990 491v-200h291q31 0 53 21.5t22 52.5v51q0 18 -7 32q-8 18 -24 29q-17 12 -39 14h-5h-291zM678 767v200h-291q-31 0 -53 -21.5t-22 -52.5v-51q0 -31 22 -53t53 -22h291zM1459 54q-78 -39 -167 -39h-302v-277h-312v277h-623v276h623v200h-302q-146 0 -253 98l-1 1l-9 9
q-74 72 -100 172q-13 50 -13 96q0 49 14 100q32 113 123 189t209 86h1h1q14 1 43 1h287v277h312v-277h623v-276h-623v-200h301q147 0 254 -98l1 -1l8 -9q114 -112 114 -268q0 -107 -56.5 -198t-152.5 -139z" />
    <glyph glyph-name="ampersand" unicode="&#x26;" 
d="M1495 476v-200v-276h-1119q-155 0 -265.5 110.5t-110.5 265.5q0 134 85 238q-85 104 -85 239q0 155 110.5 265.5t265.5 110.5h1119v-276h-1109q-31 0 -52.5 -22t-21.5 -53v-51q0 -31 21.5 -53t52.5 -22h797h312h173v-276h-173zM1183 276v200h-797q-31 0 -52.5 -21.5
t-21.5 -52.5v-51q0 -31 21.5 -53t52.5 -22h797z" />
    <glyph glyph-name="quotesingle" unicode="'" horiz-adv-x="491" 
d="M276 734h-276v390v161h276v-161v-390z" />
    <glyph glyph-name="parenleft" unicode="(" horiz-adv-x="759" 
d="M312 284q0 -96 69 -165t165 -69v-312q-148 0 -273.5 73.5t-199 199t-73.5 273.5v690q0 148 73.5 273.5t199 199t273.5 73.5v-312q-96 0 -165 -69t-69 -165v-690z" />
    <glyph glyph-name="parenright" unicode=")" horiz-adv-x="759" 
d="M234 284v690q0 96 -69 165t-165 69v312q148 0 273.5 -73.5t199 -199t73.5 -273.5v-690q0 -148 -73.5 -273.5t-199 -199t-273.5 -73.5v312q96 0 165 69t69 165z" />
    <glyph glyph-name="asterisk" unicode="*" horiz-adv-x="1050" 
d="M0 720l22 61v1l43 117l1 2l22 60l52 -19h1l148 -54v148v57h67h62h62h66v-57v-148l148 54h1l53 19l22 -60v-2l43 -117v-1l23 -61l-54 -19l-126 -46l16 -20l73 -86l37 -44l-51 -42l-95 -80v-1l-51 -42l-37 44l-130 156l-131 -156l-37 -44l-50 42v1l-96 80l-50 42l36 44
l73 86l16 20l-125 46z" />
    <glyph glyph-name="plus" unicode="+" horiz-adv-x="1179" 
d="M344 650v344h277v-344h344v-276h-344v-344h-277v344h-344v276h344z" />
    <glyph glyph-name="comma" unicode="," horiz-adv-x="565" 
d="M0 105q31 1 53 22.5t22 52.5v137h275v-137q0 -142 -99.5 -244t-240.5 -107h-10v276z" />
    <glyph glyph-name="hyphen" unicode="-" horiz-adv-x="1120" 
d="M0 374v276h905v-276h-905z" />
    <glyph glyph-name="period" unicode="." horiz-adv-x="489" 
d="M0 275h275v-275h-275v275z" />
    <glyph glyph-name="slash" unicode="/" horiz-adv-x="1652" 
d="M1031 1229h407l-1031 -1229h-407z" />
    <glyph glyph-name="zero" unicode="0" horiz-adv-x="2002" 
d="M376 1229h415h86h78h458q155 0 265.5 -110.5t110.5 -265.5v-477q0 -155 -110.5 -265.5t-265.5 -110.5h-458h-78h-86h-415q-155 0 -265.5 110.5t-110.5 265.5v477q0 155 110.5 265.5t265.5 110.5zM312 833v-437q0 -50 35 -85t84 -35h360h86h78h402q49 0 84.5 35t35.5 85
v437q0 49 -35.5 84.5t-84.5 35.5h-402h-78h-86h-360q-49 0 -84 -35t-35 -85z" />
    <glyph glyph-name="one" unicode="1" horiz-adv-x="753" 
d="M539 0h-312v953h-227v276h107h432v-1229z" />
    <glyph glyph-name="two" unicode="2" 
d="M191 703q87 49 185 49h905q31 1 53 22.5t22 52.5v51q0 31 -22 53t-53 22h-1226v276h1236q155 0 266 -110.5t111 -265.5q0 -111 -62 -206q-21 -32 -52 -63l-8 -9h-1q-101 -93 -237 -99h-2h-920q-31 0 -52.5 -21.5t-21.5 -52.5v-126h1301v-275h-1613v375q0 102 51 189.5
t140 137.5z" />
    <glyph glyph-name="three" unicode="3" 
d="M0 276h1281q31 0 53 22t22 53v51q0 31 -22 52.5t-53 21.5h-1281v277h620v-1h661q31 0 53 22t22 53v51q0 31 -22 53t-53 22h-1281v276h1291q155 0 266 -110.5t111 -265.5q0 -134 -86 -239q86 -105 86 -238q0 -155 -111 -265.5t-266 -110.5h-1291v276z" />
    <glyph glyph-name="four" unicode="4" 
d="M0 663v566h312v-547q0 -50 35 -84.5t84 -34.5h925v666h312v-666v-276v-287h-312v287h-982h-9h-1h-1q-151 4 -257 114t-106 262z" />
    <glyph glyph-name="five" unicode="5" 
d="M55 277h1226q31 0 53 22t22 53v51q0 31 -22 52t-53 22h-591h-690v752h1613v-275h-1301v-200h666h313q146 0 254 -99l1 -1l8 -8q54 -54 84 -124t30 -145q0 -102 -51 -189.5t-140 -137.5q-87 -49 -186 -49h-1236v276z" />
    <glyph glyph-name="six" unicode="6" 
d="M312 476v-80q0 -50 35 -85t84 -35h850q31 0 53 22t22 53v51q0 31 -22 52t-53 22h-796v275h306v1h187v1h313q146 0 254 -99l1 -1l8 -8q54 -54 84 -124t30 -145q0 -155 -110.5 -265.5t-265.5 -110.5h-916q-155 0 -265.5 110.5t-110.5 265.5v477q0 155 110.5 265.5
t265.5 110.5h500v-1h737v-275h-1182q-49 0 -84 -35t-35 -85v-44v-38v-275z" />
    <glyph glyph-name="seven" unicode="7" 
d="M1290 843q54 45 64 110h-1354v276h1668v-244q0 -231 -178 -380l-720 -605h-485z" />
    <glyph glyph-name="eight" unicode="8" 
d="M1281 752q31 0 53 22t22 53v51q0 31 -22 53t-53 22h-895q-31 0 -52.5 -22t-21.5 -53v-51q0 -31 21.5 -53t52.5 -22h895zM85 614q-85 104 -85 239q0 155 110.5 265.5t265.5 110.5h916q155 0 265.5 -110.5t110.5 -265.5q0 -134 -86 -239q86 -105 86 -238
q0 -155 -110.5 -265.5t-265.5 -110.5h-916q-155 0 -265.5 110.5t-110.5 265.5q0 134 85 238zM1356 351v51q0 31 -22 52.5t-53 21.5h-895q-31 0 -52.5 -21.5t-21.5 -52.5v-51q0 -31 21.5 -53t52.5 -22h895q31 0 53 22t22 53z" />
    <glyph glyph-name="nine" unicode="9" 
d="M0 853q0 155 110.5 265.5t265.5 110.5h916q155 0 265.5 -110.5t110.5 -265.5v-477q0 -155 -110.5 -265.5t-265.5 -110.5h-501v1h-736v275h1181q50 0 85 35t35 85v25v56v275v74v7q0 49 -35 84.5t-85 35.5h-849q-31 0 -53 -22t-22 -53v-51q0 -31 22 -52.5t53 -22.5h796
v-275h-307v-1h-186h-314q-145 0 -253 99h-1l-9 9q-113 111 -113 269z" />
    <glyph glyph-name="colon" unicode=":" horiz-adv-x="489" 
d="M0 953h275v-275h-275v275zM0 275h275v-275h-275v275z" />
    <glyph glyph-name="semicolon" unicode=";" horiz-adv-x="565" 
d="M75 1007v-275h275v275h-275zM0 118q31 1 53 22t22 52v138h275v-138q0 -142 -99.5 -244t-240.5 -107h-10v277z" />
    <glyph glyph-name="equal" unicode="=" horiz-adv-x="1398" 
d="M1183 426v-276h-1183v276h1183zM1183 874v-276h-1183v276h1183z" />
    <glyph glyph-name="question" unicode="?" horiz-adv-x="1589" 
d="M312 312v-312h18h275h19v312h-312zM312 753h83h1h228v-1h363l6 1q22 2 39 14q14 10 23 29q7 14 7 31v51q0 31 -21.5 53t-52.5 22h-676h-229h-83v116v160h312h686q87 0 167 -40q96 -48 152.5 -138.5t56.5 -197.5q0 -158 -113 -269l-9 -9h-1q-108 -99 -253 -99h-314h-60
v-101h-312v101v277z" />
    <glyph glyph-name="A" unicode="A" horiz-adv-x="2402" 
d="M364 0h-41h-323l559 927q87 145 226 223.5t308 78.5t308 -78.5t226 -223.5l560 -927h-324h-41l-462 766q-62 103 -122 144.5t-145 41.5t-145 -41.5t-122 -144.5z" />
    <glyph glyph-name="B" unicode="B" 
d="M485 752h796q31 0 53 22t22 53v51q0 31 -22 53t-53 22h-969v-677h969q31 0 53 22t22 53v51q0 31 -22 52.5t-53 21.5h-796v276zM1582 614q86 -105 86 -238q0 -155 -110.5 -265.5t-265.5 -110.5h-1292v1229h1292q155 0 265.5 -110.5t110.5 -265.5q0 -134 -86 -239z" />
    <glyph glyph-name="C" unicode="C" 
d="M0 853q0 155 110.5 265.5t265.5 110.5h1292v-276h-1237q-49 0 -84 -35t-35 -85v-437q0 -50 35 -85t84 -35h1237v-276h-1292q-155 0 -265.5 110.5t-110.5 265.5v477z" />
    <glyph glyph-name="D" unicode="D" 
d="M312 276h924q50 0 85 35t35 85v437q0 49 -35 84.5t-85 35.5h-924v-677zM0 1229h1291q155 0 266 -110.5t111 -265.5v-477q0 -155 -111 -265.5t-266 -110.5h-1291v1229z" />
    <glyph glyph-name="E" unicode="E" 
d="M1668 276v-276h-1292q-155 0 -265.5 110.5t-110.5 265.5v477q0 155 110.5 265.5t265.5 110.5h1292v-276h-1237q-49 0 -84 -35t-35 -85v-437q0 -50 35 -85t84 -35h1237zM1668 476v276h-1183v-276h1183z" />
    <glyph glyph-name="F" unicode="F" 
d="M485 752v-276h1183v276h-1183zM431 953q-49 0 -84 -35t-35 -85v-833h-312v853q0 155 110.5 265.5t265.5 110.5h1292v-276h-1237z" />
    <glyph glyph-name="G" unicode="G" 
d="M1356 276v200h-871v276h1183v-752h-1294q-155 0 -264.5 110.5t-109.5 265.5v477q0 82 35 158q40 85 114.5 141.5t166.5 71.5q33 5 60 5h1292v-276h-1237q-49 0 -84 -35t-35 -85v-437q0 -50 35 -85t84 -35h925z" />
    <glyph glyph-name="H" unicode="H" 
d="M485 752h871v477h312v-1229h-312v476h-871v276zM0 1229h312v-1229h-312v1229z" />
    <glyph glyph-name="I" unicode="I" horiz-adv-x="526" 
d="M0 1229h312v-1229h-312v1229z" />
    <glyph glyph-name="J" unicode="J" 
d="M0 542h312v-146q0 -50 35 -85t84 -35h805q50 0 85 35t35 85v833h312v-853q0 -95 -45 -178t-125 -136q-22 -14 -36 -21q-79 -41 -169 -41h-919q-155 0 -264.5 110.5t-109.5 265.5v166z" />
    <glyph glyph-name="K" unicode="K" horiz-adv-x="1929" 
d="M312 0h-312v1229h312v-1229zM1715 0h-403l-389 476h-438v276h438l389 477h403l-502 -615z" />
    <glyph glyph-name="L" unicode="L" 
d="M0 376v853h312v-833q0 -50 35 -85t84 -35h1237v-276h-1294q-90 0 -169 41q-9 5 -35 21q-80 53 -125 136t-45 178z" />
    <glyph glyph-name="M" unicode="M" horiz-adv-x="2371" 
d="M0 1235h312h36q86 0 156.5 -41t113.5 -115l460 -797l460 797q43 74 113.5 115t156.5 41h36h312v-1228v-7h-312v7v916q-38 -5 -58 -39l-463 -800q-46 -77 -134 -77h-222q-90 0 -135 77l-462 800q-20 34 -58 39v-923h-312v1235z" />
    <glyph glyph-name="N" unicode="N" horiz-adv-x="1894" 
d="M0 1229h296h86q145 0 239 -112l55 -65l1 -1l565 -673l32 -38q23 -28 60 -28h34v917h312v-1229h-297h-86q-146 0 -239 111l-54 66l-1 1l-565 673l-32 38q-23 28 -60 28h-34v-1v-916h-312v1229z" />
    <glyph glyph-name="O" unicode="O" horiz-adv-x="2002" 
d="M376 1229h415h86h78h458q155 0 265.5 -110.5t110.5 -265.5v-477q0 -155 -110.5 -265.5t-265.5 -110.5h-458h-78h-86h-415q-155 0 -265.5 110.5t-110.5 265.5v477q0 155 110.5 265.5t265.5 110.5zM312 833v-437q0 -50 35 -85t84 -35h360h86h78h402q49 0 84.5 35t35.5 85
v437q0 49 -35.5 84.5t-84.5 35.5h-402h-78h-86h-360q-49 0 -84 -35t-35 -85z" />
    <glyph glyph-name="P" unicode="P" 
d="M485 363v276h749q50 0 86 36t36 86v70q0 50 -36 86t-86 36h-922v-82v-232v-276v-1v-131v-231h-312v362v1v276v314v276h1290q158 -8 268 -123.5t110 -274.5v-70q0 -119 -64 -216.5t-169 -145.5q-80 -36 -166 -36h-784z" />
    <glyph glyph-name="Q" unicode="Q" horiz-adv-x="2002" 
d="M376 0q-155 0 -265.5 110.5t-110.5 265.5v477q0 155 110.5 265.5t265.5 110.5h246h255h78h458q155 0 265.5 -110.5t110.5 -265.5v-447h-172h-140v427q0 49 -35.5 84.5t-84.5 35.5h-402h-78h-255h-191q-49 0 -84 -35t-35 -85v-437q0 -50 35 -85t84 -35h191h255h78h402h56
q86 0 161.5 -37t128.5 -101q86 -105 86 -238v-114h-135h-177v94v2q-1 49 -36 83.5t-84 34.5h-402h-78h-255h-246z" />
    <glyph glyph-name="R" unicode="R" horiz-adv-x="1984" 
d="M0 953v276h1290q158 -8 268 -123.5t110 -274.5v-70q0 -119 -64 -216.5t-169 -145.5l334 -399h-402l-304 362h-578v1v276h749q50 0 86 36t36 86v70q0 50 -36 86t-86 36h-922v-82v-232v-276v-1v-131v-231h-312v362v1v276v314z" />
    <glyph glyph-name="S" unicode="S" 
d="M1459 39q-78 -39 -167 -39h-1237v276h1226q31 0 53 22t22 53v51q0 17 -7 31q-8 18 -24 29q-17 12 -39 14h-5h-591h-314q-145 0 -253 99h-1l-9 9q-74 72 -100 172q-13 50 -13 97q0 49 14 100q32 113 123 189t209 86h1h1q14 1 43 1h1222v-276h-1227q-31 0 -52.5 -22
t-21.5 -53v-51q0 -31 21.5 -53t52.5 -22h592v1h313q146 0 254 -99l1 -1l8 -8q54 -54 84 -124t30 -145q0 -107 -56.5 -198t-152.5 -139z" />
    <glyph glyph-name="T" unicode="T" 
d="M0 952v277h1668v-277h-678v-952h-312v952h-678z" />
    <glyph glyph-name="U" unicode="U" horiz-adv-x="1959" 
d="M431 276h403h78h402q50 0 85 35t35 84v834h312v-853q0 -155 -111 -265.5t-266 -110.5h-457h-78h-458q-155 0 -265.5 110.5t-110.5 265.5v853h312v-834q0 -49 35 -84t84 -35z" />
    <glyph glyph-name="V" unicode="V" horiz-adv-x="2402" 
d="M364 1229l462 -767q62 -103 122 -144t145 -41t145 41t122 144l462 767h41h324l-560 -928q-87 -145 -226 -223t-308 -78t-308 78t-226 223l-559 928h323h41z" />
    <glyph glyph-name="W" unicode="W" horiz-adv-x="2707" 
d="M0 1229h319l196 -918l92 159l247 428l146 253q45 78 135 78h222q88 0 134 -78l393 -681l92 -159l197 918h319l-237 -1106l-1 -1q-11 -52 -51 -86t-93 -36h-152h-80q-85 3 -127 77v1l-227 392l-278 483l-279 -483l-226 -392l-1 -1q-42 -74 -127 -77h-80h-151
q-53 2 -93.5 36t-51.5 86v1z" />
    <glyph glyph-name="X" unicode="X" horiz-adv-x="2207" 
d="M1192 445q-27 31 -67 31h-51h-156h-50q-41 0 -68 -31l-387 -445h-413l534 614l-534 615h413l387 -446q26 -30 68 -30h50h156h51q41 0 67 30l387 446h413l-8 -10l-526 -605l535 -614h-414z" />
    <glyph glyph-name="Y" unicode="Y" horiz-adv-x="2052" 
d="M1423 1229h407h6l-6 -7l-2 -3l-121 -139l-404 -466l-207 -237l-22 -25v-352h-312v352l-21 25l-207 237l-334 385l-200 230h413l387 -446h1l117 -135l118 135z" />
    <glyph glyph-name="Z" unicode="Z" horiz-adv-x="1886" 
d="M38 345q36 61 148 119q47 24 142.5 70t142.5 70l324 165l290 148h-1083v312h1668v-117v-5v-1q0 -55 -0.5 -79.5t-9 -68.5t-26.5 -74q-35 -60 -149 -119q-47 -24 -142.5 -70t-142.5 -70l-614 -313h1084v-312h-1668v116v6v1q0 55 0.5 79.5t9 68.5t26.5 74z" />
    <glyph glyph-name="a" unicode="a" horiz-adv-x="2402" 
d="M364 0h-41h-323l559 927q87 145 226 223.5t308 78.5t308 -78.5t226 -223.5l560 -927h-324h-41l-462 766q-62 103 -122 144.5t-145 41.5t-145 -41.5t-122 -144.5z" />
    <glyph glyph-name="b" unicode="b" 
d="M485 752h796q31 0 53 22t22 53v51q0 31 -22 53t-53 22h-969v-677h969q31 0 53 22t22 53v51q0 31 -22 52.5t-53 21.5h-796v276zM1582 614q86 -105 86 -238q0 -155 -110.5 -265.5t-265.5 -110.5h-1292v1229h1292q155 0 265.5 -110.5t110.5 -265.5q0 -134 -86 -239z" />
    <glyph glyph-name="c" unicode="c" 
d="M0 853q0 155 110.5 265.5t265.5 110.5h1292v-276h-1237q-49 0 -84 -35t-35 -85v-437q0 -50 35 -85t84 -35h1237v-276h-1292q-155 0 -265.5 110.5t-110.5 265.5v477z" />
    <glyph glyph-name="d" unicode="d" 
d="M312 276h924q50 0 85 35t35 85v437q0 49 -35 84.5t-85 35.5h-924v-677zM0 1229h1291q155 0 266 -110.5t111 -265.5v-477q0 -155 -111 -265.5t-266 -110.5h-1291v1229z" />
    <glyph glyph-name="e" unicode="e" 
d="M1668 276v-276h-1292q-155 0 -265.5 110.5t-110.5 265.5v477q0 155 110.5 265.5t265.5 110.5h1292v-276h-1237q-49 0 -84 -35t-35 -85v-437q0 -50 35 -85t84 -35h1237zM1668 476v276h-1183v-276h1183z" />
    <glyph glyph-name="f" unicode="f" 
d="M485 752v-276h1183v276h-1183zM431 953q-49 0 -84 -35t-35 -85v-833h-312v853q0 155 110.5 265.5t265.5 110.5h1292v-276h-1237z" />
    <glyph glyph-name="g" unicode="g" 
d="M1356 276v200h-871v276h1183v-752h-1294q-155 0 -264.5 110.5t-109.5 265.5v477q0 82 35 158q40 85 114.5 141.5t166.5 71.5q33 5 60 5h1292v-276h-1237q-49 0 -84 -35t-35 -85v-437q0 -50 35 -85t84 -35h925z" />
    <glyph glyph-name="h" unicode="h" 
d="M485 752h871v477h312v-1229h-312v476h-871v276zM0 1229h312v-1229h-312v1229z" />
    <glyph glyph-name="i" unicode="i" horiz-adv-x="526" 
d="M0 1229h312v-1229h-312v1229z" />
    <glyph glyph-name="j" unicode="j" 
d="M0 542h312v-146q0 -50 35 -85t84 -35h805q50 0 85 35t35 85v833h312v-853q0 -95 -45 -178t-125 -136q-22 -14 -36 -21q-79 -41 -169 -41h-919q-155 0 -264.5 110.5t-109.5 265.5v166z" />
    <glyph glyph-name="k" unicode="k" horiz-adv-x="1929" 
d="M312 0h-312v1229h312v-1229zM1715 0h-403l-389 476h-438v276h438l389 477h403l-502 -615z" />
    <glyph glyph-name="l" unicode="l" 
d="M0 376v853h312v-833q0 -50 35 -85t84 -35h1237v-276h-1294q-90 0 -169 41q-9 5 -35 21q-80 53 -125 136t-45 178z" />
    <glyph glyph-name="m" unicode="m" horiz-adv-x="2371" 
d="M0 1235h312h36q86 0 156.5 -41t113.5 -115l460 -797l460 797q43 74 113.5 115t156.5 41h36h312v-1228v-7h-312v7v916q-38 -5 -58 -39l-463 -800q-46 -77 -134 -77h-222q-90 0 -135 77l-462 800q-20 34 -58 39v-923h-312v1235z" />
    <glyph glyph-name="n" unicode="n" horiz-adv-x="1894" 
d="M0 1229h296h86q145 0 239 -112l55 -65l1 -1l565 -673l32 -38q23 -28 60 -28h34v917h312v-1229h-297h-86q-146 0 -239 111l-54 66l-1 1l-565 673l-32 38q-23 28 -60 28h-34v-1v-916h-312v1229z" />
    <glyph glyph-name="o" unicode="o" horiz-adv-x="2002" 
d="M376 1229h415h86h78h458q155 0 265.5 -110.5t110.5 -265.5v-477q0 -155 -110.5 -265.5t-265.5 -110.5h-458h-78h-86h-415q-155 0 -265.5 110.5t-110.5 265.5v477q0 155 110.5 265.5t265.5 110.5zM312 833v-437q0 -50 35 -85t84 -35h360h86h78h402q49 0 84.5 35t35.5 85
v437q0 49 -35.5 84.5t-84.5 35.5h-402h-78h-86h-360q-49 0 -84 -35t-35 -85z" />
    <glyph glyph-name="p" unicode="p" 
d="M485 363v276h749q50 0 86 36t36 86v70q0 50 -36 86t-86 36h-922v-82v-232v-276v-1v-131v-231h-312v362v1v276v314v276h1290q158 -8 268 -123.5t110 -274.5v-70q0 -119 -64 -216.5t-169 -145.5q-80 -36 -166 -36h-784z" />
    <glyph glyph-name="q" unicode="q" horiz-adv-x="2002" 
d="M376 0q-155 0 -265.5 110.5t-110.5 265.5v477q0 155 110.5 265.5t265.5 110.5h246h255h78h458q155 0 265.5 -110.5t110.5 -265.5v-447h-172h-140v427q0 49 -35.5 84.5t-84.5 35.5h-402h-78h-255h-191q-49 0 -84 -35t-35 -85v-437q0 -50 35 -85t84 -35h191h255h78h402h56
q86 0 161.5 -37t128.5 -101q86 -105 86 -238v-114h-135h-177v94v2q-1 49 -36 83.5t-84 34.5h-402h-78h-255h-246z" />
    <glyph glyph-name="r" unicode="r" horiz-adv-x="1984" 
d="M0 953v276h1290q158 -8 268 -123.5t110 -274.5v-70q0 -119 -64 -216.5t-169 -145.5l334 -399h-402l-304 362h-578v1v276h749q50 0 86 36t36 86v70q0 50 -36 86t-86 36h-922v-82v-232v-276v-1v-131v-231h-312v362v1v276v314z" />
    <glyph glyph-name="s" unicode="s" 
d="M1459 39q-78 -39 -167 -39h-1237v276h1226q31 0 53 22t22 53v51q0 17 -7 31q-8 18 -24 29q-17 12 -39 14h-5h-591h-314q-145 0 -253 99h-1l-9 9q-74 72 -100 172q-13 50 -13 97q0 49 14 100q32 113 123 189t209 86h1h1q14 1 43 1h1222v-276h-1227q-31 0 -52.5 -22
t-21.5 -53v-51q0 -31 21.5 -53t52.5 -22h592v1h313q146 0 254 -99l1 -1l8 -8q54 -54 84 -124t30 -145q0 -107 -56.5 -198t-152.5 -139z" />
    <glyph glyph-name="t" unicode="t" 
d="M0 952v277h1668v-277h-678v-952h-312v952h-678z" />
    <glyph glyph-name="u" unicode="u" horiz-adv-x="1959" 
d="M431 276h403h78h402q50 0 85 35t35 84v834h312v-853q0 -155 -111 -265.5t-266 -110.5h-457h-78h-458q-155 0 -265.5 110.5t-110.5 265.5v853h312v-834q0 -49 35 -84t84 -35z" />
    <glyph glyph-name="v" unicode="v" horiz-adv-x="2402" 
d="M364 1229l462 -767q62 -103 122 -144t145 -41t145 41t122 144l462 767h41h324l-560 -928q-87 -145 -226 -223t-308 -78t-308 78t-226 223l-559 928h323h41z" />
    <glyph glyph-name="w" unicode="w" horiz-adv-x="2707" 
d="M0 1229h319l196 -918l92 159l247 428l146 253q45 78 135 78h222q88 0 134 -78l393 -681l92 -159l197 918h319l-237 -1106l-1 -1q-11 -52 -51 -86t-93 -36h-152h-80q-85 3 -127 77v1l-227 392l-278 483l-279 -483l-226 -392l-1 -1q-42 -74 -127 -77h-80h-151
q-53 2 -93.5 36t-51.5 86v1z" />
    <glyph glyph-name="x" unicode="x" horiz-adv-x="2207" 
d="M1192 445q-27 31 -67 31h-51h-156h-50q-41 0 -68 -31l-387 -445h-413l534 614l-534 615h413l387 -446q26 -30 68 -30h50h156h51q41 0 67 30l387 446h413l-8 -10l-526 -605l535 -614h-414z" />
    <glyph glyph-name="y" unicode="y" horiz-adv-x="2052" 
d="M1423 1229h407h6l-6 -7l-2 -3l-121 -139l-404 -466l-207 -237l-22 -25v-352h-312v352l-21 25l-207 237l-334 385l-200 230h413l387 -446h1l117 -135l118 135z" />
    <glyph glyph-name="z" unicode="z" horiz-adv-x="1886" 
d="M38 345q36 61 148 119q47 24 142.5 70t142.5 70l324 165l290 148h-1083v312h1668v-117v-5v-1q0 -55 -0.5 -79.5t-9 -68.5t-26.5 -74q-35 -60 -149 -119q-47 -24 -142.5 -70t-142.5 -70l-614 -313h1084v-312h-1668v116v6v1q0 55 0.5 79.5t9 68.5t26.5 74z" />
    <glyph glyph-name="nonbreakingspace" unicode="&#xa0;" horiz-adv-x="1257" 
 />
  </font>
</defs>
</svg>
