<svg xmlns="http://www.w3.org/2000/svg" xmlns:xlink="http://www.w3.org/1999/xlink" width="90px" height="45px" viewBox="0 0 30 15" class=""><g id="iv-logo-full" stroke="none" fill="#1F2124" fill-rule="evenodd" class=""><path d="M30,0 L21.6995,3.457 C19.528,4.3595 18,6.5015 18,9 C18,12.314 20.6865,15 24,15 C27.314,15 30,12.314 30,9 L30,0 Z" id="third" class=""></path><path d="M17.1,9 C17.1,6.3325 18.62,3.9375 21,2.789 L21,0 L12.6995,3.457 C10.528,4.3595 9,6.5015 9,9 C9,12.314 11.6865,15 15,15 C16.4695,15 17.814,14.47 18.857,13.594 C17.7655,12.3725 17.1,10.7625 17.1,9" id="second" class=""></path><path d="M8.1,9 C8.1,6.3325 9.62,3.9375 12,2.789 L12,0 L3.6995,3.457 C1.528,4.3595 0,6.5015 0,9 C0,12.314 2.6865,15 6,15 C7.4695,15 8.814,14.47 9.857,13.594 C8.7655,12.3725 8.1,10.7625 8.1,9" id="first" class=""></path></g></svg>